<svg height="512pt" viewBox="0 0 512 512" width="512pt" xmlns="http://www.w3.org/2000/svg"><path d="m512 256c0 141.386719-114.613281 256-256 256s-256-114.613281-256-256 114.613281-256 256-256 256 114.613281 256 256zm0 0" fill="#c3ddff"/><path d="m0 256c0 117.042969 78.578125 215.671875 185.835938 246.183594 65.007812-23.367188 76.925781-75.457032 66.035156-109.410156-8.773438-27.355469-41.804688-42.839844-83.269532-29.417969-50.828124 16.449219-86.992187 7.800781-106.667968-11.871094-14.273438-14.273437-15.222656-36.378906-5.070313-54.636719 7.820313-14.066406 22.035157-23.378906 37.75-26.839844 36.410157-8.019531 142.980469-34.828124 143.835938-74.050781.703125-32.085937-23.222657-51.746093-81.546875-78.183593-38.757813-17.570313-49.492188-54.207032-34.976563-79.894532-73.15625 45.058594-121.925781 125.894532-121.925781 218.121094zm0 0" fill="#ccf49f"/><path d="m297.289062 470.710938c-141.382812 0-256-114.617188-256-256 0-60.171876 20.765626-115.496094 55.511719-159.199219-58.984375 46.898437-96.800781 119.273437-96.800781 200.488281 0 141.386719 114.613281 256 256 256 81.214844 0 153-37.375 200.5625-96.898438-43.703125 34.746094-99.101562 55.609376-159.273438 55.609376zm0 0" fill="#a4ccff"/><path d="m92.800781 368.746094c-12.757812-3.46875-23.113281-9.511719-30.867187-17.261719-13.628906-13.632813-15.085938-34.453125-6.347656-52.199219-9.285157-26.507812-14.296876-54.898437-14.296876-84.574218 0-60.171876 20.765626-115.496094 55.511719-159.199219-58.984375 46.898437-96.800781 119.273437-96.800781 200.488281 0 117.042969 78.445312 215.71875 185.707031 246.230469 25.566407-9.191407 43.007813-22.804688 53.992188-38.03125-59.578125-13.714844-111.261719-48.207031-146.898438-95.453125zm0 0" fill="#b3e59f"/><path d="m256 0c-23.351562 0-45.929688 3.113281-67.425781 8.972656-31.25 53.980469 13.058593 83.675782 58.136719 86.945313 57.289062 4.15625 95.921874-41.648438 125.589843-2.945313 22.847657 29.808594-57.414062 61.671875-35.6875 105.222656l-22.125 119.835938c-3.09375 13.015625-2.585937 25.65625 4.480469 37.238281 23.742188 38.917969 96.6875-11.671875 80.859375 48.421875-8.03125 30.496094-9.621094 52.742188-7.390625 68.957032 71.832031-45.339844 119.5625-125.425782 119.5625-216.648438 0-141.386719-114.613281-256-256-256zm0 0" fill="#ccf49f"/><path d="m404.644531 322.066406h-297.289062c-18.242188 0-33.03125-14.789062-33.03125-33.035156v-66.0625c0-18.242188 14.789062-33.03125 33.03125-33.03125h297.289062c18.242188 0 33.03125 14.789062 33.03125 33.03125v66.0625c0 18.242188-14.789062 33.035156-33.03125 33.035156zm0 0" fill="#fff"/><g fill="#b3e59f"><path d="m169.289062 289.03125c-3.328124 0-6.339843-2.007812-7.621093-5.082031l-13.023438-31.257813-13.023437 31.257813c-1.28125 3.074219-4.289063 5.082031-7.621094 5.082031s-6.339844-2.007812-7.621094-5.082031l-20.644531-49.546875c-1.757813-4.210938.234375-9.046875 4.445313-10.796875 4.199218-1.757813 9.039062.234375 10.796874 4.445312l13.023438 31.253907 13.023438-31.257813c1.28125-3.070313 4.289062-5.078125 7.621093-5.078125s6.339844 2.007812 7.621094 5.078125l13.023437 31.257813 13.023438-31.257813c1.757812-4.207031 6.613281-6.199219 10.800781-4.441406 4.207031 1.75 6.199219 6.585937 4.441407 10.796875l-20.644532 49.546875c-1.28125 3.074219-4.289062 5.082031-7.621094 5.082031zm0 0"/><path d="m276.644531 289.03125c-3.332031 0-6.339843-2.007812-7.621093-5.082031l-13.023438-31.253907-13.023438 31.257813c-1.28125 3.070313-4.289062 5.078125-7.621093 5.078125s-6.339844-2.007812-7.621094-5.078125l-20.644531-49.550781c-1.757813-4.207032.234375-9.046875 4.441406-10.796875 4.210938-1.757813 9.042969.234375 10.800781 4.445312l13.023438 31.257813 13.023437-31.257813c1.28125-3.074219 4.289063-5.082031 7.621094-5.082031s6.339844 2.007812 7.621094 5.082031l13.023437 31.257813 13.023438-31.257813c1.765625-4.210937 6.605469-6.203125 10.800781-4.445312 4.207031 1.75 6.199219 6.589843 4.441406 10.796875l-20.644531 49.550781c-1.28125 3.070313-4.289063 5.078125-7.621094 5.078125zm0 0"/><path d="m384 289.03125c-3.332031 0-6.339844-2.007812-7.621094-5.082031l-13.023437-31.257813-13.023438 31.257813c-1.28125 3.074219-4.292969 5.082031-7.621093 5.082031-3.332032 0-6.339844-2.007812-7.621094-5.082031l-20.644532-49.546875c-1.757812-4.210938.234376-9.046875 4.441407-10.796875 4.203125-1.757813 9.042969.234375 10.800781 4.445312l13.023438 31.257813 13.023437-31.257813c1.28125-3.074219 4.289063-5.082031 7.621094-5.082031s6.339843 2.007812 7.621093 5.082031l13.023438 31.253907 13.023438-31.257813c1.757812-4.207031 6.613281-6.199219 10.796874-4.441406 4.210938 1.75 6.203126 6.585937 4.445313 10.796875l-20.644531 49.546875c-1.28125 3.074219-4.289063 5.082031-7.621094 5.082031zm0 0"/></g><path d="m123.871094 305.546875c-18.242188 0-33.03125-14.789063-33.03125-33.03125v-78.167969c-9.832032 5.722656-16.515625 16.425782-16.515625 28.621094v66.0625c0 18.246094 14.789062 33.035156 33.03125 33.035156h297.289062c12.195313 0 22.898438-6.683594 28.621094-16.515625h-309.394531zm0 0" fill="#edf4ff"/><path d="m391.640625 452.71875c-.304687 7.457031 0 14.128906.796875 19.945312 24.335938-15.363281 46.234375-35.152343 64.125-57.5625-19.414062 15.386719-41.542969 28.324219-64.921875 37.617188zm0 0" fill="#b3e59f"/></svg>